<svg width="453" height="75" viewBox="0 0 453 75" fill="none" xmlns="http://www.w3.org/2000/svg">
<path d="M27.734 73.6C23.4007 73.6 19.5673 72.7667 16.234 71.1C12.9007 69.3667 10.0673 67.1 7.73399 64.3C5.40065 61.4333 3.63398 58.2 2.43398 54.6C1.23398 50.9333 0.633984 47.1333 0.633984 43.2C0.633984 38.2667 1.70065 33.3333 3.83398 28.4C6.03398 23.4667 9.03398 19.0333 12.834 15.1C16.7007 11.1 21.234 7.86666 26.434 5.39999C31.7007 2.86666 37.434 1.6 43.634 1.6C50.1673 1.6 55.5673 3.03333 59.834 5.9C64.1007 8.7 66.9007 12.4333 68.234 17.1L51.134 27.7C50.8673 25.9667 50.334 24.5333 49.534 23.4C48.8007 22.2667 47.8673 21.3667 46.734 20.7C45.6673 20.0333 44.5007 19.5667 43.234 19.3C41.9673 19.0333 40.734 18.9 39.534 18.9C36.4673 18.9 33.734 19.6333 31.334 21.1C29.0007 22.5667 27.034 24.4333 25.434 26.7C23.834 28.9667 22.6007 31.4667 21.734 34.2C20.934 36.8667 20.534 39.4333 20.534 41.9C20.534 43.8333 20.7673 45.7 21.234 47.5C21.7007 49.2333 22.4007 50.7667 23.334 52.1C24.2673 53.3667 25.434 54.4 26.834 55.2C28.234 55.9333 29.9007 56.3 31.834 56.3C33.034 56.3 34.3007 56.1667 35.634 55.9C37.034 55.5667 38.3673 55.0667 39.634 54.4C40.9673 53.6667 42.2007 52.7667 43.334 51.7C44.534 50.5667 45.5673 49.2 46.434 47.6L60.334 57.1C58.8007 59.7 56.7673 62.0333 54.234 64.1C51.7673 66.1667 49.034 67.9 46.034 69.3C43.1007 70.7 40.034 71.7667 36.834 72.5C33.634 73.2333 30.6007 73.6 27.734 73.6ZM69.8402 20.4H88.8402L77.6402 73H58.6402L69.8402 20.4ZM74.1402 -1.90735e-06H93.1402L89.7402 16H70.7402L74.1402 -1.90735e-06ZM91.4535 20.4H108.554L106.854 28.2C109.187 25.3333 112.087 23.1667 115.554 21.7C119.087 20.1667 123.02 19.4 127.354 19.4C129.754 19.4 131.72 19.7333 133.254 20.4C134.854 21.0667 136.087 21.9667 136.954 23.1C137.887 24.2333 138.52 25.5333 138.854 27C139.187 28.4 139.354 29.8333 139.354 31.3C139.354 32.5667 139.254 33.8 139.054 35C138.92 36.2 138.754 37.3333 138.554 38.4L131.254 73H112.254L118.554 43.4C118.754 42.4 118.854 41.5333 118.854 40.8C118.854 39.1333 118.454 37.9333 117.654 37.2C116.92 36.4 116.02 36 114.954 36C113.62 36 112.02 36.7 110.154 38.1C108.354 39.5 106.82 41.3 105.554 43.5L99.2535 73H80.2535L91.4535 20.4ZM160.212 74C156.812 74 153.712 73.4667 150.912 72.4C148.112 71.3333 145.712 69.8333 143.712 67.9C141.779 65.9667 140.279 63.6333 139.212 60.9C138.145 58.1667 137.612 55.1 137.612 51.7C137.612 47.2333 138.512 43.0333 140.312 39.1C142.112 35.1667 144.579 31.7333 147.712 28.8C150.845 25.8667 154.512 23.5667 158.712 21.9C162.979 20.2333 167.512 19.4 172.312 19.4C178.712 19.4 183.679 20.7667 187.212 23.5C190.812 26.1667 192.612 29.9 192.612 34.7C192.612 40.6333 189.879 45.1 184.412 48.1C179.012 51.1 170.979 52.6 160.312 52.6H157.412C157.412 55.4667 157.879 57.5 158.812 58.7C159.812 59.8333 161.479 60.4 163.812 60.4C168.079 60.4 171.345 58.6 173.612 55L188.512 59.8C187.045 61.9333 185.245 63.8667 183.112 65.6C181.045 67.3333 178.745 68.8333 176.212 70.1C173.745 71.3667 171.145 72.3333 168.412 73C165.679 73.6667 162.945 74 160.212 74ZM168.912 32.9C166.979 32.9 165.179 33.6667 163.512 35.2C161.912 36.6667 160.579 38.6667 159.512 41.2H160.212C165.345 41.2 168.912 40.9 170.912 40.3C172.979 39.6333 174.012 38.4667 174.012 36.8C174.012 35.6667 173.545 34.7333 172.612 34C171.679 33.2667 170.445 32.9 168.912 32.9ZM198.153 20.4H215.253L213.553 28.2C215.886 25.3333 218.786 23.1667 222.253 21.7C225.786 20.1667 229.453 19.4 233.253 19.4C235.453 19.4 237.286 19.6667 238.753 20.2C240.219 20.6667 241.386 21.3333 242.253 22.2C243.186 23 243.853 23.9667 244.253 25.1C244.719 26.1667 245.019 27.3 245.153 28.5C247.486 25.6333 250.353 23.4 253.753 21.8C257.219 20.2 260.819 19.4 264.553 19.4C266.953 19.4 268.886 19.7333 270.353 20.4C271.886 21.0667 273.086 21.9333 273.953 23C274.886 24.0667 275.519 25.3 275.853 26.7C276.186 28.1 276.353 29.5333 276.353 31C276.353 31.6 276.286 32.5 276.153 33.7C276.086 34.9 275.853 36.4667 275.453 38.4L268.053 73H249.053L255.353 43.4C255.553 42.3333 255.653 41.3667 255.653 40.5C255.653 38.9667 255.319 37.8333 254.653 37.1C254.053 36.3667 253.319 36 252.453 36C251.786 36 251.019 36.2 250.153 36.6C249.353 37 248.519 37.5333 247.653 38.2C246.853 38.8667 246.053 39.6667 245.253 40.6C244.519 41.4667 243.853 42.4333 243.253 43.5L237.053 73H218.053L224.353 43.4C224.553 42.3333 224.653 41.3667 224.653 40.5C224.653 38.9667 224.319 37.8333 223.653 37.1C223.053 36.3667 222.286 36 221.353 36C220.686 36 219.919 36.2 219.053 36.6C218.253 37 217.419 37.5333 216.553 38.2C215.753 38.8667 214.953 39.6667 214.153 40.6C213.419 41.5333 212.786 42.5 212.253 43.5L205.953 73H186.953L198.153 20.4ZM293.185 74C290.251 74 287.618 73.5 285.285 72.5C283.018 71.4333 281.085 69.9667 279.485 68.1C277.885 66.2333 276.651 64 275.785 61.4C274.985 58.8 274.585 55.9333 274.585 52.8C274.585 48.2667 275.351 44 276.885 40C278.418 35.9333 280.485 32.3667 283.085 29.3C285.685 26.2333 288.685 23.8333 292.085 22.1C295.551 20.3 299.185 19.4 302.985 19.4C306.185 19.4 308.918 20.1667 311.185 21.7C313.518 23.2333 315.085 25.4 315.885 28.2L317.485 20.8H336.585L329.885 52C329.685 53 329.585 53.8 329.585 54.4C329.585 56.0667 330.485 56.9333 332.285 57L328.885 73C325.551 73.6667 322.851 74 320.785 74C317.785 74 315.418 73.4333 313.685 72.3C311.951 71.1667 311.085 69.1667 311.085 66.3C311.085 65.6333 311.118 65.1333 311.185 64.8C308.785 68 305.985 70.3333 302.785 71.8C299.651 73.2667 296.451 74 293.185 74ZM301.785 58C303.385 58 304.885 57.5667 306.285 56.7C307.685 55.7667 309.218 54.4 310.885 52.6L312.885 43.2C312.551 40.8667 311.718 39 310.385 37.6C309.118 36.1333 307.585 35.4 305.785 35.4C304.385 35.4 303.018 35.8 301.685 36.6C300.351 37.4 299.151 38.4667 298.085 39.8C297.018 41.0667 296.151 42.5667 295.485 44.3C294.885 46.0333 294.585 47.8333 294.585 49.7C294.585 52.2333 295.185 54.2667 296.385 55.8C297.651 57.2667 299.451 58 301.785 58ZM348.733 74.1C346.933 74.1 345.267 73.9 343.733 73.5C342.2 73.1667 340.833 72.5667 339.633 71.7C338.5 70.8333 337.6 69.7333 336.933 68.4C336.333 67.0667 336.033 65.4 336.033 63.4C336.033 62.6667 336.067 61.9333 336.133 61.2C336.2 60.4667 336.333 59.6667 336.533 58.8L341.633 34.7H335.533L338.633 20.4H344.733L348.233 3.9H367.233L363.733 20.4H373.333L370.333 34.7H360.633L356.933 52.1C356.867 52.4333 356.8 52.7667 356.733 53.1C356.733 53.3667 356.733 53.6333 356.733 53.9C356.733 55.8333 357.733 56.8 359.733 56.8C360.533 56.8 361.533 56.6667 362.733 56.4C364 56.0667 365.3 55.6333 366.633 55.1V70.1C363.7 71.2333 360.667 72.2 357.533 73C354.467 73.7333 351.533 74.1 348.733 74.1ZM378.637 20.4H397.637L386.437 73H367.437L378.637 20.4ZM382.937 -1.90735e-06H401.937L398.537 16H379.537L382.937 -1.90735e-06ZM410.35 46.7L399.45 20.4H418.65L422.45 33.3L422.95 35.4L424.25 33.3L433.95 20.4H452.95L430.75 46.7L442.25 73H422.95L418.55 60.1L418.15 58.1L416.85 60.1L407.05 73H387.75L410.35 46.7Z" fill="black"/>
</svg>
